#!OML:ASF I:\Actors\actors\Patient Classification 1\Patient 1\Session 1\Subject1.ASF
:FULLY-SPECIFIED
:DEGREES
1060
root 0.459772 17.5084 10.0035 13.3751 -5.08326 -10.5468
lowerback -1.93331 3.01894 7.06711
upperback -8.53098 4.35189 1.86005
thorax -7.53074 1.74913 -2.15984
lowerneck -14.4477 -3.01442 -0.8529
upperneck 29.039 -5.44726 4.18595
head 12.0929 -2.00298 0.922229
rclavicle -1.75924e-014 -4.77083e-015
rhumerus 9.4295 53.3535 -70.0746
rradius 87.9846
rwrist 9.84905
rhand 6.83662 -53.529
rfingers 7.12502
rthumb 32.1202 -80.7108
lclavicle -1.75924e-014 -4.77083e-015
lhumerus -24.37 -34.5104 84.7434
lradius 98.0819
lwrist -30.8159
lhand -20.4124 -27.7846
lfingers 7.12502
lthumb 5.9417 2.11213
rfemur -6.15069 23.011 26.6782
rtibia 3.56204
rfoot -13.0372 -21.2728
rtoes 0.00171517
lfemur 8.69661 -51.6047 -13.662
ltibia -4.65672
lfoot -49.7411 58.6731
ltoes 25.9285
1061
root 0.458266 17.5093 10.0008 13.407 -5.08431 -10.555
lowerback -1.92131 3.00087 7.0731
upperback -8.53396 4.32951 1.86651
thorax -7.54313 1.73731 -2.15642
lowerneck -14.391 -2.96185 -0.694994
upperneck 29.0336 -5.37498 4.06052
head 12.0675 -1.9705 0.859649
rclavicle 1.91827e-014 -1.51076e-014
rhumerus 10.1013 53.2546 -69.7271
rradius 87.4716
rwrist 9.16452
rhand 7.17879 -53.6957
rfingers 7.12502
rthumb 32.4459 -80.8112
lclavicle 1.91827e-014 -1.51076e-014
lhumerus -24.1761 -34.6338 84.5117
lradius 98.0041
lwrist -30.8037
lhand -20.3459 -27.7023
lfingers 7.12502
lthumb 6.00588 2.19259
rfemur -6.20635 23.0128 26.6704
rtibia 3.5798
rfoot -13.0541 -21.2609
rtoes 0.0239671
lfemur 8.69874 -51.7359 -13.6581
ltibia -4.67197
lfoot -49.8555 58.8164
ltoes 25.938
1062
root 0.457441 17.5098 9.99889 13.3887 -4.82792 -10.5088
lowerback -1.8986 2.89847 7.0355
upperback -8.53473 4.19461 1.87766
thorax -7.57153 1.67249 -2.12111
lowerneck -14.273 -2.90596 -0.612118
upperneck 28.996 -5.30674 4.04011
head 12.023 -1.93619 0.849477
rclavicle 2.5196e-014 1.19271e-015
rhumerus 10.3705 53.2861 -69.172
rradius 87.5593
rwrist 8.51326
rhand 7.46175 -53.8034
rfingers 7.12502
rthumb 32.7151 -80.8633
lclavicle 2.5196e-014 1.19271e-015
lhumerus -24.0191 -34.8224 84.3006
lradius 97.949
lwrist -30.8235
lhand -20.3059 -27.6703
lfingers 7.12502
lthumb 6.04445 2.22351
rfemur -6.18204 22.9833 26.6591
rtibia 3.57108
rfoot -13.1124 -21.471
rtoes 0.180968
lfemur 8.54409 -51.7742 -13.5391
ltibia -4.68266
lfoot -49.1722 58.9341
ltoes 25.4937
1063
root 0.458052 17.5101 9.99989 13.3395 -4.41267 -10.415
lowerback -1.89317 2.76371 6.94978
upperback -8.53495 4.01401 1.89367
thorax -7.5956 1.58891 -2.05161
lowerneck -14.1911 -2.88987 -0.648443
upperneck 29.0297 -5.29398 4.10415
head 12.0224 -1.92676 0.882957
rclavicle 2.70844e-014 -2.38542e-015
rhumerus 10.1107 53.3415 -68.5312
rradius 88.2081
rwrist 8.21899
rhand 7.32737 -53.7844
rfingers 7.12502
rthumb 32.5872 -80.8708
lclavicle 2.70844e-014 -2.38542e-015
lhumerus -23.8279 -35.105 84.1538
lradius 97.8457
lwrist -30.8025
lhand -20.367 -27.7409
lfingers 7.12502
lthumb 5.98553 2.15455
rfemur -6.10733 22.8472 26.6238
rtibia 3.55234
rfoot -13.2217 -21.7351
rtoes 0.348102
lfemur 8.36955 -51.8641 -13.4455
ltibia -4.69622
lfoot -48.3522 58.9954
ltoes 25.0116
1064
root 0.458001 17.5103 10.0021 13.2732 -3.88949 -10.3547
lowerback -1.89553 2.62505 6.87173
upperback -8.53897 3.82894 1.92251
thorax -7.61972 1.50325 -1.97212
lowerneck -14.1541 -2.9231 -0.696845
upperneck 29.1531 -5.35087 4.15361
head 12.0688 -1.94898 0.902658
rclavicle 3.32964e-015 3.97569e-015
rhumerus 9.30315 53.3543 -67.9618
rradius 89.2652
rwrist 8.14673
rhand 6.87129 -53.6242
rfingers 7.12502
rthumb 32.1532 -80.7993
lclavicle 3.32964e-015 3.97569e-015
lhumerus -23.6121 -35.5052 84.0519
lradius 97.7014
lwrist -30.7628
lhand -20.6124 -27.9002
lfingers 7.12502
lthumb 5.74856 2.00181
rfemur -6.01955 22.7402 26.6518
rtibia 3.56305
rfoot -13.3855 -22.1351
rtoes 0.53041
lfemur 8.14392 -51.9254 -13.2407
ltibia -4.71934
lfoot -47.3831 58.9244
ltoes 24.4317
1065
root 0.455863 17.51 10.0045 13.1769 -3.27934 -10.334
lowerback -1.86926 2.46858 6.75731
upperback -8.54901 3.62494 1.99186
thorax -7.67233 1.41143 -1.83063
lowerneck -14.1393 -2.98264 -0.775908
upperneck 29.3633 -5.44309 4.20247
head 12.1568 -1.98819 0.922363
rclavicle -3.70485e-014 1.11319e-014
rhumerus 7.98482 53.3146 -67.4975
rradius 90.7096
rwrist 7.94002
rhand 7.02006 -53.6716
rfingers 7.12502
rthumb 32.2948 -80.818
lclavicle -3.70485e-014 1.11319e-014
lhumerus -23.4348 -35.9477 84.0227
lradius 97.5607
lwrist -30.6639
lhand -20.8174 -27.8475
lfingers 7.12502
lthumb 5.55062 2.05984
rfemur -5.88544 22.72 26.7666
rtibia 3.58678
rfoot -13.6192 -22.6797
rtoes 1.01914
lfemur 7.86065 -51.8319 -12.8922
ltibia -4.775
lfoot -45.8668 58.7866
ltoes 23.5372
